# Blender 4.3.0
# www.blender.org
mtllib RegularSwish1.mtl
o Swish
v -1.781483 0.121061 0.000000
v -1.158000 -0.000000 0.000000
v -2.404965 0.000000 0.000000
v -1.688900 0.084216 -0.484488
v -1.100143 -0.000000 -0.307827
v -2.277656 0.000000 -0.661149
v -1.501554 0.084216 -0.893504
v -0.988281 -0.000000 -0.554870
v -2.014827 0.000000 -1.232138
v -1.219126 0.084216 -1.211886
v -0.819158 -0.000000 -0.743443
v -1.619093 0.000000 -1.680330
v -0.864905 0.084216 -1.439548
v -0.596434 -0.000000 -0.883601
v -1.133376 0.000000 -1.995496
v -0.462182 0.084216 -1.576406
v -0.328414 -0.000000 -0.972637
v -0.595951 0.000000 -2.180176
v -0.034249 0.084216 -1.622375
v -0.033237 -0.000000 -1.003563
v -0.035260 0.000000 -2.241187
v 0.395605 0.084216 -1.577370
v 0.264786 -0.000000 -0.972796
v 0.526425 0.000000 -2.181943
v 0.804089 0.084216 -1.441305
v 0.541039 -0.000000 -0.882402
v 1.067140 0.000000 -2.000208
v 1.167913 0.084216 -1.214096
v 0.776183 -0.000000 -0.738081
v 1.559643 0.000000 -1.690111
v 1.463785 0.084216 -0.895658
v 0.959696 -0.000000 -0.542525
v 1.967874 0.000000 -1.248790
v 1.668415 0.084216 -0.485905
v 1.086129 -0.000000 -0.292186
v 2.250701 0.000000 -0.679623
v 1.781483 0.121061 -0.000000
v 1.158836 -0.000000 -0.000000
v 2.404130 0.000000 -0.000000
v -1.762961 0.096936 -0.124659
v -1.742590 0.087725 -0.247903
v -1.718519 0.084655 -0.368318
v -2.379762 0.000000 -0.169357
v -2.351910 0.000000 -0.337086
v -2.318758 0.000000 -0.501560
v -1.146159 -0.000000 -0.079961
v -1.133269 -0.000000 -0.158721
v -1.118280 -0.000000 -0.235076
v -1.652251 0.084216 -0.595234
v -1.608568 0.084216 -0.700320
v -1.558214 0.084216 -0.799744
v -2.226487 0.000000 -0.814446
v -2.165264 0.000000 -0.960919
v -2.094529 0.000000 -1.100254
v -1.078015 -0.000000 -0.376022
v -1.051872 -0.000000 -0.439721
v -1.021900 -0.000000 -0.499234
v -1.438951 0.084216 -0.981600
v -1.370769 0.084216 -1.064030
v -1.297373 0.084216 -1.140792
v -1.926733 0.000000 -1.356281
v -1.830934 0.000000 -1.472480
v -1.728148 0.000000 -1.580556
v -0.951169 -0.000000 -0.606919
v -0.910604 -0.000000 -0.655580
v -0.866597 -0.000000 -0.701028
v -1.136391 0.084216 -1.277310
v -1.049533 0.084216 -1.337062
v -0.958917 0.084216 -1.391142
v -1.504467 0.000000 -1.771663
v -1.384899 0.000000 -1.854586
v -1.260998 0.000000 -1.929173
v -0.768315 -0.000000 -0.782957
v -0.714168 -0.000000 -0.819539
v -0.656835 -0.000000 -0.853112
v -0.767861 0.084216 -1.482279
v -0.668150 0.084216 -1.519333
v -0.566136 0.084216 -1.550710
v -1.002610 0.000000 -2.053636
v -0.869164 0.000000 -2.103711
v -0.733467 0.000000 -2.145849
v -0.533112 -0.000000 -0.910923
v -0.467137 -0.000000 -0.934956
v -0.398805 -0.000000 -0.955571
v -0.356653 0.084216 -1.596423
v -0.249911 0.084216 -1.610757
v -0.142322 0.084216 -1.619409
v -0.457030 0.000000 -2.206809
v -0.317053 0.000000 -2.225816
v -0.176352 0.000000 -2.237256
v -0.256275 -0.000000 -0.986037
v -0.182769 -0.000000 -0.995699
v -0.108291 -0.000000 -1.001561
v 0.073945 0.084216 -1.619656
v 0.181894 0.084216 -1.611250
v 0.289236 0.084216 -1.597154
v 0.105893 0.000000 -2.237651
v 0.246777 0.000000 -2.226625
v 0.387064 0.000000 -2.208069
v 0.041997 -0.000000 -1.001661
v 0.117011 -0.000000 -0.995874
v 0.191408 -0.000000 -0.986240
v 0.500640 0.084216 -1.551894
v 0.603974 0.084216 -1.520725
v 0.705246 0.084216 -1.483863
v 0.664518 0.000000 -2.148196
v 0.800945 0.000000 -2.106731
v 0.935290 0.000000 -2.057438
v 0.336761 -0.000000 -0.955591
v 0.407004 -0.000000 -0.934719
v 0.475202 -0.000000 -0.910287
v 0.900142 0.084216 -1.393051
v 0.993039 0.084216 -1.339099
v 1.082417 0.084216 -1.279448
v 1.196056 0.000000 -1.934937
v 1.321493 0.000000 -1.861547
v 1.442879 0.000000 -1.779962
v 0.604228 -0.000000 -0.851164
v 0.664586 -0.000000 -0.816651
v 0.721956 -0.000000 -0.778933
v 1.249161 0.084216 -1.143042
v 1.325798 0.084216 -1.066286
v 1.397461 0.084216 -0.983825
v 1.671195 0.000000 -1.591953
v 1.776872 0.000000 -1.485590
v 1.875992 0.000000 -1.371157
v 0.827127 -0.000000 -0.694132
v 0.874725 -0.000000 -0.646981
v 0.918930 -0.000000 -0.596492
v 1.524406 0.084216 -0.801783
v 1.578961 0.084216 -0.702201
v 1.627085 0.084216 -0.596908
v 2.051855 0.000000 -1.118575
v 2.127359 0.000000 -0.980411
v 2.193827 0.000000 -0.834144
v 0.996957 -0.000000 -0.484991
v 1.030563 -0.000000 -0.423991
v 1.060343 -0.000000 -0.359673
v 1.702945 0.084655 -0.369427
v 1.732107 0.087725 -0.248665
v 1.757690 0.096936 -0.125046
v 2.297940 0.000000 -0.517072
v 2.337567 0.000000 -0.348217
v 2.372117 0.000000 -0.175159
v 1.107950 -0.000000 -0.221782
v 1.126648 -0.000000 -0.149113
v 1.143263 -0.000000 -0.074934
vn -0.0126 0.9949 -0.0997
vn 0.1755 0.9804 -0.0895
vn -0.1685 0.9801 -0.1055
vn -0.0026 1.0000 -0.0020
vn 0.1308 0.9907 0.0368
vn -0.1302 0.9907 -0.0391
vn -0.0027 1.0000 -0.0017
vn 0.1134 0.9908 0.0745
vn -0.1135 0.9908 -0.0744
vn -0.0022 1.0000 -0.0020
vn 0.0873 0.9908 0.1036
vn -0.0878 0.9908 -0.1031
vn -0.0014 1.0000 -0.0022
vn 0.0578 0.9908 0.1222
vn -0.0585 0.9908 -0.1219
vn -0.0007 1.0000 -0.0023
vn 0.0285 0.9909 0.1319
vn -0.0289 0.9909 -0.1318
vn -0.0000 1.0000 -0.0023
vn 0.0001 0.9909 0.1349
vn -0.0002 0.9909 -0.1349
vn 0.0006 1.0000 -0.0022
vn -0.0281 0.9909 0.1320
vn 0.0284 0.9909 -0.1319
vn 0.0013 1.0000 -0.0022
vn -0.0567 0.9908 0.1226
vn 0.0573 0.9908 -0.1223
vn 0.0020 1.0000 -0.0020
vn -0.0854 0.9908 0.1050
vn 0.0859 0.9908 -0.1046
vn 0.0026 1.0000 -0.0017
vn -0.1111 0.9908 0.0776
vn 0.1112 0.9908 -0.0775
vn 0.0027 1.0000 -0.0014
vn -0.1293 0.9907 0.0426
vn 0.1290 0.9907 -0.0435
vn 0.0166 0.9949 -0.0998
vn -0.1762 0.9808 -0.0836
vn 0.1682 0.9796 -0.1100
vn 0.0037 0.9976 -0.0692
vn 0.0019 0.9997 -0.0258
vn -0.0008 1.0000 -0.0080
vn -0.1564 0.9843 -0.0816
vn -0.1386 0.9893 -0.0465
vn -0.1329 0.9905 -0.0365
vn 0.1628 0.9852 -0.0531
vn 0.1449 0.9894 -0.0037
vn 0.1357 0.9905 0.0217
vn -0.0029 1.0000 -0.0013
vn -0.0029 1.0000 -0.0015
vn -0.0028 1.0000 -0.0016
vn -0.1271 0.9907 -0.0476
vn -0.1232 0.9907 -0.0569
vn -0.1187 0.9907 -0.0658
vn 0.1273 0.9907 0.0471
vn 0.1234 0.9907 0.0566
vn 0.1187 0.9907 0.0657
vn -0.0026 1.0000 -0.0018
vn -0.0025 1.0000 -0.0019
vn -0.0023 1.0000 -0.0020
vn -0.1077 0.9908 -0.0825
vn -0.1014 0.9908 -0.0900
vn -0.0948 0.9908 -0.0969
vn 0.1075 0.9908 0.0827
vn 0.1011 0.9908 0.0903
vn 0.0943 0.9908 0.0973
vn -0.0020 1.0000 -0.0021
vn -0.0018 1.0000 -0.0021
vn -0.0016 1.0000 -0.0022
vn -0.0806 0.9908 -0.1087
vn -0.0733 0.9908 -0.1137
vn -0.0659 0.9908 -0.1181
vn 0.0800 0.9908 0.1092
vn 0.0727 0.9908 0.1141
vn 0.0652 0.9908 0.1185
vn -0.0012 1.0000 -0.0022
vn -0.0010 1.0000 -0.0022
vn -0.0009 1.0000 -0.0023
vn -0.0510 0.9908 -0.1251
vn -0.0436 0.9908 -0.1278
vn -0.0362 0.9908 -0.1300
vn 0.0504 0.9908 0.1253
vn 0.0431 0.9908 0.1280
vn 0.0358 0.9908 0.1302
vn -0.0005 1.0000 -0.0023
vn -0.0003 1.0000 -0.0023
vn -0.0002 1.0000 -0.0023
vn -0.0217 0.9909 -0.1331
vn -0.0145 0.9909 -0.1341
vn -0.0073 0.9909 -0.1347
vn 0.0214 0.9909 0.1332
vn 0.0143 0.9909 0.1341
vn 0.0072 0.9909 0.1347
vn 0.0001 1.0000 -0.0023
vn 0.0003 1.0000 -0.0022
vn 0.0005 1.0000 -0.0022
vn 0.0069 0.9909 -0.1347
vn 0.0141 0.9909 -0.1341
vn 0.0212 0.9909 -0.1332
vn -0.0069 0.9909 0.1347
vn -0.0139 0.9909 0.1341
vn -0.0210 0.9909 0.1332
vn 0.0008 1.0000 -0.0022
vn 0.0010 1.0000 -0.0022
vn 0.0011 1.0000 -0.0022
vn 0.0355 0.9909 -0.1302
vn 0.0428 0.9908 -0.1280
vn 0.0500 0.9908 -0.1254
vn -0.0352 0.9909 0.1303
vn -0.0423 0.9908 0.1282
vn -0.0495 0.9908 0.1256
vn 0.0015 1.0000 -0.0022
vn 0.0017 1.0000 -0.0021
vn 0.0018 1.0000 -0.0021
vn 0.0645 0.9908 -0.1188
vn 0.0717 0.9908 -0.1146
vn 0.0789 0.9908 -0.1099
vn -0.0640 0.9908 0.1191
vn -0.0712 0.9908 0.1150
vn -0.0783 0.9908 0.1103
vn 0.0022 1.0000 -0.0019
vn 0.0023 1.0000 -0.0019
vn 0.0024 1.0000 -0.0018
vn 0.0927 0.9908 -0.0987
vn 0.0992 0.9908 -0.0922
vn 0.1054 0.9908 -0.0852
vn -0.0923 0.9908 0.0991
vn -0.0990 0.9908 0.0925
vn -0.1053 0.9908 0.0854
vn 0.0027 1.0000 -0.0015
vn 0.0029 1.0000 -0.0012
vn 0.0030 1.0000 -0.0009
vn 0.1165 0.9908 -0.0694
vn 0.1213 0.9908 -0.0607
vn 0.1256 0.9907 -0.0518
vn -0.1165 0.9908 0.0695
vn -0.1212 0.9908 0.0610
vn -0.1254 0.9907 0.0523
vn 0.0007 1.0000 -0.0072
vn -0.0022 0.9997 -0.0250
vn -0.0044 0.9976 -0.0685
vn 0.1320 0.9904 -0.0410
vn 0.1380 0.9891 -0.0511
vn 0.1562 0.9839 -0.0865
vn -0.1348 0.9905 0.0281
vn -0.1446 0.9895 0.0031
vn -0.1629 0.9856 -0.0459
vt 0.544070 0.503906
vt 0.553363 0.503906
vt 0.553363 0.011210
vt 0.544070 0.011210
vt 0.571949 0.503906
vt 0.571949 0.011210
vt 0.562656 0.011210
vt 0.562656 0.503906
vt 0.534777 0.011210
vt 0.534776 0.503906
vt 0.544070 0.996602
vt 0.553363 0.996602
vt 0.562656 0.996602
vt 0.571949 0.996602
vt 0.534777 0.996602
vt 0.581242 0.503906
vt 0.590536 0.503906
vt 0.590536 0.011210
vt 0.581242 0.011210
vt 0.609122 0.503906
vt 0.609122 0.011210
vt 0.599829 0.011210
vt 0.599829 0.503906
vt 0.581242 0.996602
vt 0.590536 0.996602
vt 0.599829 0.996602
vt 0.609122 0.996602
vt 0.618415 0.503906
vt 0.627708 0.503906
vt 0.627708 0.011210
vt 0.618415 0.011210
vt 0.646295 0.503906
vt 0.646294 0.011210
vt 0.637001 0.011210
vt 0.637001 0.503906
vt 0.618415 0.996602
vt 0.627708 0.996602
vt 0.637001 0.996602
vt 0.646294 0.996602
vt 0.655588 0.503906
vt 0.664881 0.503906
vt 0.664881 0.011210
vt 0.655588 0.011210
vt 0.683467 0.503906
vt 0.683467 0.011210
vt 0.674174 0.011210
vt 0.674174 0.503906
vt 0.655588 0.996602
vt 0.664881 0.996602
vt 0.674174 0.996602
vt 0.683467 0.996602
vt 0.692760 0.503906
vt 0.702054 0.503906
vt 0.702054 0.011210
vt 0.692760 0.011210
vt 0.720640 0.503906
vt 0.720640 0.011210
vt 0.711347 0.011210
vt 0.711347 0.503906
vt 0.692760 0.996602
vt 0.702054 0.996602
vt 0.711347 0.996602
vt 0.720640 0.996602
vt 0.729933 0.503906
vt 0.739226 0.503906
vt 0.739226 0.011210
vt 0.729933 0.011210
vt 0.757812 0.503906
vt 0.757812 0.011210
vt 0.748519 0.011210
vt 0.748519 0.503906
vt 0.729933 0.996602
vt 0.739226 0.996602
vt 0.748519 0.996602
vt 0.757812 0.996602
vt 0.767106 0.503906
vt 0.776399 0.503906
vt 0.776399 0.011210
vt 0.767106 0.011210
vt 0.794985 0.503906
vt 0.794985 0.011210
vt 0.785692 0.011210
vt 0.785692 0.503906
vt 0.767106 0.996602
vt 0.776399 0.996602
vt 0.785692 0.996602
vt 0.794985 0.996602
vt 0.804279 0.503906
vt 0.813572 0.503906
vt 0.813572 0.011210
vt 0.804278 0.011210
vt 0.832158 0.503906
vt 0.832158 0.011210
vt 0.822865 0.011210
vt 0.822865 0.503906
vt 0.804278 0.996602
vt 0.813572 0.996602
vt 0.822865 0.996602
vt 0.832158 0.996602
vt 0.841451 0.503906
vt 0.850744 0.503906
vt 0.850744 0.011210
vt 0.841451 0.011210
vt 0.869331 0.503906
vt 0.869331 0.011210
vt 0.860037 0.011210
vt 0.860038 0.503906
vt 0.841451 0.996602
vt 0.850744 0.996602
vt 0.860037 0.996602
vt 0.869331 0.996602
vt 0.878624 0.503906
vt 0.887917 0.503906
vt 0.887917 0.011210
vt 0.878624 0.011210
vt 0.906503 0.503906
vt 0.906503 0.011210
vt 0.897210 0.011210
vt 0.897210 0.503906
vt 0.878624 0.996602
vt 0.887917 0.996602
vt 0.897210 0.996602
vt 0.906503 0.996602
vt 0.915797 0.503906
vt 0.925090 0.503906
vt 0.925090 0.011210
vt 0.915796 0.011210
vt 0.943676 0.503906
vt 0.943676 0.011210
vt 0.934383 0.011210
vt 0.934383 0.503906
vt 0.915796 0.996602
vt 0.925090 0.996602
vt 0.934383 0.996602
vt 0.943676 0.996602
vt 0.952969 0.503906
vt 0.962262 0.503906
vt 0.962262 0.011210
vt 0.952969 0.011210
vt 0.980849 0.503906
vt 0.980849 0.011210
vt 0.971555 0.011210
vt 0.971555 0.503906
vt 0.952969 0.996602
vt 0.962262 0.996602
vt 0.971555 0.996602
vt 0.980849 0.996602
s 1
f 40/1/40 41/2/41 44/3/44 43/4/43
f 4/5/4 6/6/6 45/7/45 42/8/42
f 41/2/41 42/8/42 45/7/45 44/3/44
f 43/4/43 3/9/3 1/10/1 40/1/40
f 46/11/46 47/12/47 41/2/41 40/1/40
f 4/5/4 42/8/42 48/13/48 5/14/5
f 47/12/47 48/13/48 42/8/42 41/2/41
f 40/1/40 1/10/1 2/15/2 46/11/46
f 49/16/49 50/17/50 53/18/53 52/19/52
f 7/20/7 9/21/9 54/22/54 51/23/51
f 50/17/50 51/23/51 54/22/54 53/18/53
f 52/19/52 6/6/6 4/5/4 49/16/49
f 55/24/55 56/25/56 50/17/50 49/16/49
f 7/20/7 51/23/51 57/26/57 8/27/8
f 56/25/56 57/26/57 51/23/51 50/17/50
f 49/16/49 4/5/4 5/14/5 55/24/55
f 58/28/58 59/29/59 62/30/62 61/31/61
f 10/32/10 12/33/12 63/34/63 60/35/60
f 59/29/59 60/35/60 63/34/63 62/30/62
f 61/31/61 9/21/9 7/20/7 58/28/58
f 64/36/64 65/37/65 59/29/59 58/28/58
f 10/32/10 60/35/60 66/38/66 11/39/11
f 65/37/65 66/38/66 60/35/60 59/29/59
f 58/28/58 7/20/7 8/27/8 64/36/64
f 67/40/67 68/41/68 71/42/71 70/43/70
f 13/44/13 15/45/15 72/46/72 69/47/69
f 68/41/68 69/47/69 72/46/72 71/42/71
f 70/43/70 12/33/12 10/32/10 67/40/67
f 73/48/73 74/49/74 68/41/68 67/40/67
f 13/44/13 69/47/69 75/50/75 14/51/14
f 74/49/74 75/50/75 69/47/69 68/41/68
f 67/40/67 10/32/10 11/39/11 73/48/73
f 76/52/76 77/53/77 80/54/80 79/55/79
f 16/56/16 18/57/18 81/58/81 78/59/78
f 77/53/77 78/59/78 81/58/81 80/54/80
f 79/55/79 15/45/15 13/44/13 76/52/76
f 82/60/82 83/61/83 77/53/77 76/52/76
f 16/56/16 78/59/78 84/62/84 17/63/17
f 83/61/83 84/62/84 78/59/78 77/53/77
f 76/52/76 13/44/13 14/51/14 82/60/82
f 85/64/85 86/65/86 89/66/89 88/67/88
f 19/68/19 21/69/21 90/70/90 87/71/87
f 86/65/86 87/71/87 90/70/90 89/66/89
f 88/67/88 18/57/18 16/56/16 85/64/85
f 91/72/91 92/73/92 86/65/86 85/64/85
f 19/68/19 87/71/87 93/74/93 20/75/20
f 92/73/92 93/74/93 87/71/87 86/65/86
f 85/64/85 16/56/16 17/63/17 91/72/91
f 94/76/94 95/77/95 98/78/98 97/79/97
f 22/80/22 24/81/24 99/82/99 96/83/96
f 95/77/95 96/83/96 99/82/99 98/78/98
f 97/79/97 21/69/21 19/68/19 94/76/94
f 100/84/100 101/85/101 95/77/95 94/76/94
f 22/80/22 96/83/96 102/86/102 23/87/23
f 101/85/101 102/86/102 96/83/96 95/77/95
f 94/76/94 19/68/19 20/75/20 100/84/100
f 103/88/103 104/89/104 107/90/107 106/91/106
f 25/92/25 27/93/27 108/94/108 105/95/105
f 104/89/104 105/95/105 108/94/108 107/90/107
f 106/91/106 24/81/24 22/80/22 103/88/103
f 109/96/109 110/97/110 104/89/104 103/88/103
f 25/92/25 105/95/105 111/98/111 26/99/26
f 110/97/110 111/98/111 105/95/105 104/89/104
f 103/88/103 22/80/22 23/87/23 109/96/109
f 112/100/112 113/101/113 116/102/116 115/103/115
f 28/104/28 30/105/30 117/106/117 114/107/114
f 113/101/113 114/107/114 117/106/117 116/102/116
f 115/103/115 27/93/27 25/92/25 112/100/112
f 118/108/118 119/109/119 113/101/113 112/100/112
f 28/104/28 114/107/114 120/110/120 29/111/29
f 119/109/119 120/110/120 114/107/114 113/101/113
f 112/100/112 25/92/25 26/99/26 118/108/118
f 121/112/121 122/113/122 125/114/125 124/115/124
f 31/116/31 33/117/33 126/118/126 123/119/123
f 122/113/122 123/119/123 126/118/126 125/114/125
f 124/115/124 30/105/30 28/104/28 121/112/121
f 127/120/127 128/121/128 122/113/122 121/112/121
f 31/116/31 123/119/123 129/122/129 32/123/32
f 128/121/128 129/122/129 123/119/123 122/113/122
f 121/112/121 28/104/28 29/111/29 127/120/127
f 130/124/130 131/125/131 134/126/134 133/127/133
f 34/128/34 36/129/36 135/130/135 132/131/132
f 131/125/131 132/131/132 135/130/135 134/126/134
f 133/127/133 33/117/33 31/116/31 130/124/130
f 136/132/136 137/133/137 131/125/131 130/124/130
f 34/128/34 132/131/132 138/134/138 35/135/35
f 137/133/137 138/134/138 132/131/132 131/125/131
f 130/124/130 31/116/31 32/123/32 136/132/136
f 139/136/139 140/137/140 143/138/143 142/139/142
f 37/140/37 39/141/39 144/142/144 141/143/141
f 140/137/140 141/143/141 144/142/144 143/138/143
f 142/139/142 36/129/36 34/128/34 139/136/139
f 145/144/145 146/145/146 140/137/140 139/136/139
f 37/140/37 141/143/141 147/146/147 38/147/38
f 146/145/146 147/146/147 141/143/141 140/137/140
f 139/136/139 34/128/34 35/135/35 145/144/145
