# Blender 4.3.0
# www.blender.org
mtllib RegularShortSwish.mtl
o Swish
v -2.106248 0.041686 0.000000
v -1.821488 0.078284 0.000000
v -2.404965 0.000000 0.000000
v -1.995577 0.028999 -0.576509
v -1.726677 0.054459 -0.495824
v -2.277656 0.000000 -0.661149
v -1.768912 0.028999 -1.069895
v -1.534488 0.054459 -0.915233
v -2.014827 0.000000 -1.232138
v -1.427464 0.028999 -1.455893
v -1.244789 0.054459 -1.241943
v -1.619093 0.000000 -1.680330
v -1.004748 0.028999 -1.729135
v -0.882131 0.054459 -1.475220
v -1.133376 0.000000 -1.995496
v -0.531861 0.028999 -1.890903
v -0.470765 0.054459 -1.615147
v -0.595951 0.000000 -2.180176
v -0.034775 0.028999 -1.944708
v -0.034314 0.054459 -1.662081
v -0.035260 0.000000 -2.241187
v 0.463748 0.028999 -1.892285
v 0.403999 0.054459 -1.616162
v 0.526425 0.000000 -2.181943
v 0.941110 0.028999 -1.732431
v 0.820968 0.054459 -1.477167
v 1.067140 0.000000 -2.000208
v 1.371961 0.028999 -1.462047
v 1.193048 0.054459 -1.244639
v 1.559643 0.000000 -1.690111
v 1.726359 0.028999 -1.079600
v 1.496129 0.054459 -0.918316
v 1.967874 0.000000 -1.248790
v 1.971721 0.028999 -0.586811
v 1.705777 0.054459 -0.498335
v 2.250701 0.000000 -0.679623
v 2.105813 0.041686 -0.000000
v 1.821434 0.078284 -0.000000
v 2.404130 0.000000 -0.000000
v -2.084246 0.033379 -0.147942
v -2.059978 0.030207 -0.294358
v -2.031177 0.029150 -0.437722
v -2.379762 0.000000 -0.169357
v -2.351910 0.000000 -0.337086
v -2.318758 0.000000 -0.501560
v -1.802538 0.062684 -0.127527
v -1.781686 0.056728 -0.253626
v -1.757033 0.054742 -0.376867
v -1.951364 0.028999 -0.709420
v -1.898544 0.028999 -0.836063
v -1.837575 0.028999 -0.956276
v -2.226487 0.000000 -0.814446
v -2.165264 0.000000 -0.960919
v -2.094529 0.000000 -1.100254
v -1.689097 0.054459 -0.609300
v -1.644288 0.054459 -0.717041
v -1.592627 0.054459 -0.819026
v -1.693031 0.028999 -1.176767
v -1.610464 0.028999 -1.276787
v -1.521759 0.028999 -1.369860
v -1.926733 0.000000 -1.356281
v -1.830934 0.000000 -1.472480
v -1.728148 0.000000 -1.580556
v -1.470249 0.054459 -1.005641
v -1.400296 0.054459 -1.090238
v -1.325013 0.054459 -1.169009
v -1.328117 0.028999 -1.534813
v -1.224221 0.028999 -1.606635
v -1.116268 0.028999 -1.671397
v -1.504467 0.000000 -1.771663
v -1.384899 0.000000 -1.854586
v -1.260998 0.000000 -1.929173
v -1.160008 0.054459 -1.309030
v -1.071052 0.054459 -1.370269
v -0.978300 0.054459 -1.425665
v -0.890139 0.028999 -1.779892
v -0.772856 0.028999 -1.823729
v -0.653297 0.028999 -1.860711
v -1.002610 0.000000 -2.053636
v -0.869164 0.000000 -2.103711
v -0.733467 0.000000 -2.145849
v -0.782924 0.054459 -1.518940
v -0.681048 0.054459 -1.556830
v -0.576873 0.054459 -1.588897
v -0.408938 0.028999 -1.914366
v -0.284885 0.028999 -1.931134
v -0.160048 0.028999 -1.941238
v -0.457030 0.000000 -2.206809
v -0.317053 0.000000 -2.225816
v -0.176352 0.000000 -2.237256
v -0.363093 0.054459 -1.635588
v -0.254219 0.054459 -1.650222
v -0.144505 0.054459 -1.659052
v 0.090586 0.028999 -1.941563
v 0.215691 0.028999 -1.931792
v 0.340193 0.028999 -1.915373
v 0.105893 0.000000 -2.237651
v 0.246777 0.000000 -2.226625
v 0.387064 0.000000 -2.208069
v 0.075995 0.054459 -1.659309
v 0.186057 0.054459 -1.650735
v 0.295513 0.054459 -1.636354
v 0.586002 0.028999 -1.862501
v 0.706574 0.028999 -1.825969
v 0.825073 0.028999 -1.782632
v 0.664518 0.000000 -2.148196
v 0.800945 0.000000 -2.106731
v 0.935290 0.000000 -2.057438
v 0.511155 0.054459 -1.590155
v 0.616613 0.054459 -1.558326
v 0.720006 0.054459 -1.520666
v 1.054280 0.028999 -1.675314
v 1.164127 0.028999 -1.611236
v 1.270178 0.028999 -1.540160
v 1.196056 0.000000 -1.934937
v 1.321493 0.000000 -1.861547
v 1.442879 0.000000 -1.779962
v 0.919129 0.054459 -1.427821
v 1.014114 0.054459 -1.372621
v 1.105546 0.054459 -1.311563
v 1.468994 0.028999 -1.376875
v 1.560758 0.028999 -1.284697
v 1.646723 0.028999 -1.185582
v 1.671195 0.000000 -1.591953
v 1.776872 0.000000 -1.485590
v 1.875992 0.000000 -1.371157
v 1.276240 0.054459 -1.171847
v 1.354741 0.054459 -1.093190
v 1.428166 0.054459 -1.008678
v 1.799149 0.028999 -0.966797
v 1.864615 0.028999 -0.847117
v 1.922295 0.028999 -0.720482
v 2.051855 0.000000 -1.118575
v 2.127359 0.000000 -0.980411
v 2.193827 0.000000 -0.834144
v 1.558250 0.054459 -0.822110
v 1.614148 0.054459 -0.720052
v 1.663450 0.054459 -0.612131
v 2.012872 0.029150 -0.446334
v 2.047484 0.030207 -0.300521
v 2.077738 0.033379 -0.151150
v 2.297940 0.000000 -0.517072
v 2.337567 0.000000 -0.348217
v 2.372117 0.000000 -0.175159
v 1.741123 0.054742 -0.378901
v 1.770956 0.056728 -0.255053
v 1.797114 0.062684 -0.128262
vn -0.1181 0.9905 -0.0708
vn -0.1113 0.9885 -0.1023
vn -0.1236 0.9913 -0.0443
vn -0.0904 0.9955 -0.0271
vn -0.0866 0.9959 -0.0262
vn -0.0941 0.9952 -0.0280
vn -0.0788 0.9956 -0.0517
vn -0.0755 0.9959 -0.0495
vn -0.0819 0.9952 -0.0537
vn -0.0610 0.9956 -0.0716
vn -0.0584 0.9959 -0.0687
vn -0.0635 0.9952 -0.0744
vn -0.0406 0.9956 -0.0846
vn -0.0388 0.9959 -0.0811
vn -0.0423 0.9952 -0.0879
vn -0.0201 0.9956 -0.0915
vn -0.0192 0.9960 -0.0877
vn -0.0209 0.9952 -0.0951
vn -0.0001 0.9956 -0.0936
vn -0.0001 0.9960 -0.0897
vn -0.0001 0.9953 -0.0973
vn 0.0197 0.9956 -0.0915
vn 0.0188 0.9960 -0.0878
vn 0.0205 0.9952 -0.0952
vn 0.0398 0.9956 -0.0849
vn 0.0380 0.9960 -0.0814
vn 0.0414 0.9952 -0.0883
vn 0.0596 0.9956 -0.0726
vn 0.0571 0.9959 -0.0696
vn 0.0621 0.9952 -0.0755
vn 0.0772 0.9956 -0.0538
vn 0.0740 0.9959 -0.0516
vn 0.0803 0.9952 -0.0560
vn 0.0896 0.9955 -0.0302
vn 0.0858 0.9959 -0.0293
vn 0.0933 0.9952 -0.0310
vn 0.1180 0.9903 -0.0735
vn 0.1110 0.9882 -0.1054
vn 0.1236 0.9912 -0.0480
vn -0.1084 0.9925 -0.0561
vn -0.0962 0.9948 -0.0321
vn -0.0922 0.9954 -0.0253
vn -0.1146 0.9927 -0.0363
vn -0.1012 0.9945 -0.0253
vn -0.0964 0.9951 -0.0240
vn -0.1022 0.9920 -0.0744
vn -0.0911 0.9951 -0.0388
vn -0.0880 0.9958 -0.0266
vn -0.0883 0.9955 -0.0330
vn -0.0856 0.9955 -0.0395
vn -0.0824 0.9956 -0.0457
vn -0.0918 0.9952 -0.0344
vn -0.0890 0.9952 -0.0411
vn -0.0857 0.9952 -0.0475
vn -0.0846 0.9959 -0.0316
vn -0.0820 0.9959 -0.0378
vn -0.0790 0.9959 -0.0438
vn -0.0748 0.9956 -0.0573
vn -0.0704 0.9956 -0.0625
vn -0.0658 0.9956 -0.0673
vn -0.0777 0.9952 -0.0595
vn -0.0733 0.9952 -0.0649
vn -0.0685 0.9952 -0.0699
vn -0.0716 0.9959 -0.0549
vn -0.0675 0.9959 -0.0599
vn -0.0630 0.9959 -0.0645
vn -0.0560 0.9956 -0.0755
vn -0.0509 0.9956 -0.0789
vn -0.0458 0.9956 -0.0820
vn -0.0583 0.9952 -0.0785
vn -0.0530 0.9952 -0.0821
vn -0.0476 0.9952 -0.0852
vn -0.0536 0.9959 -0.0724
vn -0.0487 0.9959 -0.0757
vn -0.0438 0.9959 -0.0786
vn -0.0354 0.9956 -0.0868
vn -0.0303 0.9956 -0.0887
vn -0.0252 0.9956 -0.0903
vn -0.0369 0.9952 -0.0903
vn -0.0315 0.9952 -0.0922
vn -0.0262 0.9952 -0.0938
vn -0.0339 0.9960 -0.0833
vn -0.0289 0.9960 -0.0850
vn -0.0241 0.9960 -0.0865
vn -0.0151 0.9956 -0.0924
vn -0.0101 0.9956 -0.0931
vn -0.0051 0.9956 -0.0935
vn -0.0157 0.9952 -0.0961
vn -0.0105 0.9952 -0.0968
vn -0.0053 0.9952 -0.0972
vn -0.0144 0.9960 -0.0886
vn -0.0096 0.9960 -0.0892
vn -0.0048 0.9960 -0.0896
vn 0.0048 0.9956 -0.0935
vn 0.0098 0.9956 -0.0931
vn 0.0147 0.9956 -0.0925
vn 0.0050 0.9953 -0.0972
vn 0.0102 0.9952 -0.0968
vn 0.0153 0.9952 -0.0962
vn 0.0046 0.9960 -0.0896
vn 0.0093 0.9960 -0.0892
vn 0.0141 0.9960 -0.0886
vn 0.0247 0.9956 -0.0904
vn 0.0297 0.9956 -0.0889
vn 0.0347 0.9956 -0.0871
vn 0.0257 0.9952 -0.0940
vn 0.0309 0.9952 -0.0924
vn 0.0362 0.9952 -0.0905
vn 0.0236 0.9960 -0.0866
vn 0.0284 0.9960 -0.0852
vn 0.0332 0.9960 -0.0835
vn 0.0448 0.9956 -0.0824
vn 0.0498 0.9956 -0.0796
vn 0.0548 0.9956 -0.0763
vn 0.0466 0.9952 -0.0857
vn 0.0518 0.9952 -0.0827
vn 0.0570 0.9952 -0.0793
vn 0.0429 0.9959 -0.0790
vn 0.0477 0.9959 -0.0763
vn 0.0524 0.9959 -0.0732
vn 0.0644 0.9956 -0.0685
vn 0.0689 0.9956 -0.0640
vn 0.0732 0.9956 -0.0591
vn 0.0670 0.9952 -0.0712
vn 0.0717 0.9952 -0.0666
vn 0.0761 0.9952 -0.0615
vn 0.0616 0.9959 -0.0657
vn 0.0660 0.9959 -0.0614
vn 0.0701 0.9959 -0.0567
vn 0.0809 0.9956 -0.0481
vn 0.0843 0.9956 -0.0422
vn 0.0872 0.9955 -0.0359
vn 0.0841 0.9952 -0.0501
vn 0.0876 0.9952 -0.0438
vn 0.0907 0.9952 -0.0373
vn 0.0775 0.9959 -0.0462
vn 0.0807 0.9959 -0.0404
vn 0.0835 0.9959 -0.0345
vn 0.0917 0.9954 -0.0284
vn 0.0958 0.9948 -0.0354
vn 0.1081 0.9924 -0.0595
vn 0.0959 0.9950 -0.0272
vn 0.1009 0.9945 -0.0286
vn 0.1146 0.9926 -0.0400
vn 0.0873 0.9957 -0.0297
vn 0.0905 0.9950 -0.0418
vn 0.1016 0.9918 -0.0769
vt 0.544070 0.493360
vt 0.553363 0.493360
vt 0.553363 0.011210
vt 0.544070 0.011210
vt 0.571949 0.493360
vt 0.571949 0.011210
vt 0.562656 0.011210
vt 0.562656 0.493360
vt 0.534777 0.011210
vt 0.534776 0.493360
vt 0.544070 0.972293
vt 0.553363 0.972293
vt 0.562656 0.972293
vt 0.571949 0.972292
vt 0.534777 0.972293
vt 0.581242 0.493360
vt 0.590536 0.493360
vt 0.590536 0.011210
vt 0.581242 0.011210
vt 0.609122 0.493360
vt 0.609122 0.011210
vt 0.599829 0.011210
vt 0.599829 0.493360
vt 0.581242 0.972293
vt 0.590536 0.972293
vt 0.599829 0.972293
vt 0.609122 0.972293
vt 0.618415 0.493360
vt 0.627708 0.493360
vt 0.627708 0.011210
vt 0.618415 0.011210
vt 0.646294 0.493360
vt 0.646294 0.011210
vt 0.637001 0.011210
vt 0.637001 0.493360
vt 0.618415 0.972293
vt 0.627708 0.972293
vt 0.637001 0.972293
vt 0.646294 0.972293
vt 0.655588 0.493360
vt 0.664881 0.493360
vt 0.664881 0.011210
vt 0.655588 0.011210
vt 0.683467 0.493360
vt 0.683467 0.011210
vt 0.674174 0.011210
vt 0.674174 0.493360
vt 0.655588 0.972293
vt 0.664881 0.972293
vt 0.674174 0.972293
vt 0.683467 0.972292
vt 0.692760 0.493360
vt 0.702054 0.493360
vt 0.702054 0.011210
vt 0.692760 0.011210
vt 0.720640 0.493360
vt 0.720640 0.011210
vt 0.711347 0.011210
vt 0.711347 0.493360
vt 0.692760 0.972293
vt 0.702054 0.972293
vt 0.711347 0.972293
vt 0.720640 0.972293
vt 0.729933 0.493360
vt 0.739226 0.493360
vt 0.739226 0.011210
vt 0.729933 0.011210
vt 0.757812 0.493360
vt 0.757812 0.011210
vt 0.748519 0.011210
vt 0.748520 0.493360
vt 0.729933 0.972293
vt 0.739226 0.972293
vt 0.748519 0.972293
vt 0.757813 0.972293
vt 0.767106 0.493360
vt 0.776399 0.493360
vt 0.776399 0.011210
vt 0.767106 0.011210
vt 0.794985 0.493360
vt 0.794985 0.011210
vt 0.785692 0.011210
vt 0.785692 0.493360
vt 0.767106 0.972293
vt 0.776399 0.972293
vt 0.785692 0.972293
vt 0.794985 0.972293
vt 0.804278 0.493360
vt 0.813572 0.493360
vt 0.813572 0.011210
vt 0.804278 0.011210
vt 0.832158 0.493360
vt 0.832158 0.011210
vt 0.822865 0.011210
vt 0.822865 0.493360
vt 0.804278 0.972293
vt 0.813572 0.972293
vt 0.822865 0.972293
vt 0.832158 0.972293
vt 0.841451 0.493360
vt 0.850744 0.493360
vt 0.850744 0.011210
vt 0.841451 0.011210
vt 0.869331 0.493360
vt 0.869331 0.011210
vt 0.860037 0.011210
vt 0.860037 0.493360
vt 0.841451 0.972293
vt 0.850744 0.972293
vt 0.860037 0.972293
vt 0.869331 0.972293
vt 0.878624 0.493360
vt 0.887917 0.493360
vt 0.887917 0.011210
vt 0.878624 0.011210
vt 0.906503 0.493360
vt 0.906503 0.011210
vt 0.897210 0.011210
vt 0.897210 0.493360
vt 0.878624 0.972293
vt 0.887917 0.972293
vt 0.897210 0.972293
vt 0.906503 0.972292
vt 0.915796 0.493360
vt 0.925090 0.493360
vt 0.925090 0.011210
vt 0.915796 0.011210
vt 0.943676 0.493360
vt 0.943676 0.011210
vt 0.934383 0.011210
vt 0.934383 0.493360
vt 0.915797 0.972293
vt 0.925090 0.972293
vt 0.934383 0.972293
vt 0.943676 0.972292
vt 0.952969 0.493360
vt 0.962262 0.493360
vt 0.962262 0.011210
vt 0.952969 0.011210
vt 0.980849 0.493360
vt 0.980849 0.011210
vt 0.971555 0.011210
vt 0.971556 0.493360
vt 0.952969 0.972293
vt 0.962262 0.972293
vt 0.971556 0.972292
vt 0.980849 0.972293
s 1
f 40/1/40 41/2/41 44/3/44 43/4/43
f 4/5/4 6/6/6 45/7/45 42/8/42
f 41/2/41 42/8/42 45/7/45 44/3/44
f 43/4/43 3/9/3 1/10/1 40/1/40
f 46/11/46 47/12/47 41/2/41 40/1/40
f 4/5/4 42/8/42 48/13/48 5/14/5
f 47/12/47 48/13/48 42/8/42 41/2/41
f 40/1/40 1/10/1 2/15/2 46/11/46
f 49/16/49 50/17/50 53/18/53 52/19/52
f 7/20/7 9/21/9 54/22/54 51/23/51
f 50/17/50 51/23/51 54/22/54 53/18/53
f 52/19/52 6/6/6 4/5/4 49/16/49
f 55/24/55 56/25/56 50/17/50 49/16/49
f 7/20/7 51/23/51 57/26/57 8/27/8
f 56/25/56 57/26/57 51/23/51 50/17/50
f 49/16/49 4/5/4 5/14/5 55/24/55
f 58/28/58 59/29/59 62/30/62 61/31/61
f 10/32/10 12/33/12 63/34/63 60/35/60
f 59/29/59 60/35/60 63/34/63 62/30/62
f 61/31/61 9/21/9 7/20/7 58/28/58
f 64/36/64 65/37/65 59/29/59 58/28/58
f 10/32/10 60/35/60 66/38/66 11/39/11
f 65/37/65 66/38/66 60/35/60 59/29/59
f 58/28/58 7/20/7 8/27/8 64/36/64
f 67/40/67 68/41/68 71/42/71 70/43/70
f 13/44/13 15/45/15 72/46/72 69/47/69
f 68/41/68 69/47/69 72/46/72 71/42/71
f 70/43/70 12/33/12 10/32/10 67/40/67
f 73/48/73 74/49/74 68/41/68 67/40/67
f 13/44/13 69/47/69 75/50/75 14/51/14
f 74/49/74 75/50/75 69/47/69 68/41/68
f 67/40/67 10/32/10 11/39/11 73/48/73
f 76/52/76 77/53/77 80/54/80 79/55/79
f 16/56/16 18/57/18 81/58/81 78/59/78
f 77/53/77 78/59/78 81/58/81 80/54/80
f 79/55/79 15/45/15 13/44/13 76/52/76
f 82/60/82 83/61/83 77/53/77 76/52/76
f 16/56/16 78/59/78 84/62/84 17/63/17
f 83/61/83 84/62/84 78/59/78 77/53/77
f 76/52/76 13/44/13 14/51/14 82/60/82
f 85/64/85 86/65/86 89/66/89 88/67/88
f 19/68/19 21/69/21 90/70/90 87/71/87
f 86/65/86 87/71/87 90/70/90 89/66/89
f 88/67/88 18/57/18 16/56/16 85/64/85
f 91/72/91 92/73/92 86/65/86 85/64/85
f 19/68/19 87/71/87 93/74/93 20/75/20
f 92/73/92 93/74/93 87/71/87 86/65/86
f 85/64/85 16/56/16 17/63/17 91/72/91
f 94/76/94 95/77/95 98/78/98 97/79/97
f 22/80/22 24/81/24 99/82/99 96/83/96
f 95/77/95 96/83/96 99/82/99 98/78/98
f 97/79/97 21/69/21 19/68/19 94/76/94
f 100/84/100 101/85/101 95/77/95 94/76/94
f 22/80/22 96/83/96 102/86/102 23/87/23
f 101/85/101 102/86/102 96/83/96 95/77/95
f 94/76/94 19/68/19 20/75/20 100/84/100
f 103/88/103 104/89/104 107/90/107 106/91/106
f 25/92/25 27/93/27 108/94/108 105/95/105
f 104/89/104 105/95/105 108/94/108 107/90/107
f 106/91/106 24/81/24 22/80/22 103/88/103
f 109/96/109 110/97/110 104/89/104 103/88/103
f 25/92/25 105/95/105 111/98/111 26/99/26
f 110/97/110 111/98/111 105/95/105 104/89/104
f 103/88/103 22/80/22 23/87/23 109/96/109
f 112/100/112 113/101/113 116/102/116 115/103/115
f 28/104/28 30/105/30 117/106/117 114/107/114
f 113/101/113 114/107/114 117/106/117 116/102/116
f 115/103/115 27/93/27 25/92/25 112/100/112
f 118/108/118 119/109/119 113/101/113 112/100/112
f 28/104/28 114/107/114 120/110/120 29/111/29
f 119/109/119 120/110/120 114/107/114 113/101/113
f 112/100/112 25/92/25 26/99/26 118/108/118
f 121/112/121 122/113/122 125/114/125 124/115/124
f 31/116/31 33/117/33 126/118/126 123/119/123
f 122/113/122 123/119/123 126/118/126 125/114/125
f 124/115/124 30/105/30 28/104/28 121/112/121
f 127/120/127 128/121/128 122/113/122 121/112/121
f 31/116/31 123/119/123 129/122/129 32/123/32
f 128/121/128 129/122/129 123/119/123 122/113/122
f 121/112/121 28/104/28 29/111/29 127/120/127
f 130/124/130 131/125/131 134/126/134 133/127/133
f 34/128/34 36/129/36 135/130/135 132/131/132
f 131/125/131 132/131/132 135/130/135 134/126/134
f 133/127/133 33/117/33 31/116/31 130/124/130
f 136/132/136 137/133/137 131/125/131 130/124/130
f 34/128/34 132/131/132 138/134/138 35/135/35
f 137/133/137 138/134/138 132/131/132 131/125/131
f 130/124/130 31/116/31 32/123/32 136/132/136
f 139/136/139 140/137/140 143/138/143 142/139/142
f 37/140/37 39/141/39 144/142/144 141/143/141
f 140/137/140 141/143/141 144/142/144 143/138/143
f 142/139/142 36/129/36 34/128/34 139/136/139
f 145/144/145 146/145/146 140/137/140 139/136/139
f 37/140/37 141/143/141 147/146/147 38/147/38
f 146/145/146 147/146/147 141/143/141 140/137/140
f 139/136/139 34/128/34 35/135/35 145/144/145
