# Blender 4.3.0
# www.blender.org
o Swish.001
v -2.404965 0.051149 -0.000000
v -2.404965 -0.051149 -0.000000
v -2.528311 0.000000 -0.018355
v -2.379762 0.051149 -0.169357
v -2.379762 -0.051149 -0.169357
v -2.502949 0.000000 -0.188749
v -2.351910 0.051149 -0.337086
v -2.351910 -0.051149 -0.337086
v -2.474560 0.000000 -0.359624
v -2.318758 0.051149 -0.501560
v -2.318758 -0.051149 -0.501560
v -2.440305 0.000000 -0.529441
v -2.277656 0.051149 -0.661149
v -2.277656 -0.051149 -0.661149
v -2.397255 0.000000 -0.696464
v -2.226487 0.051149 -0.814447
v -2.226487 -0.051149 -0.814447
v -2.343240 0.000000 -0.858264
v -2.165263 0.051149 -0.960919
v -2.165263 -0.051149 -0.960919
v -2.278467 0.000000 -1.013226
v -2.094528 0.051149 -1.100254
v -2.094528 -0.051149 -1.100254
v -2.203565 0.000000 -1.160769
v -2.014827 0.051149 -1.232138
v -2.014827 -0.051149 -1.232138
v -2.119112 0.000000 -1.300518
v -1.926733 0.051149 -1.356281
v -1.926733 -0.051149 -1.356281
v -2.025758 0.000000 -1.432078
v -1.830934 0.051149 -1.472480
v -1.830934 -0.051149 -1.472480
v -1.924284 0.000000 -1.555165
v -1.728148 0.051149 -1.580556
v -1.728148 -0.051149 -1.580556
v -1.815470 0.000000 -1.669584
v -1.619092 0.051149 -1.680330
v -1.619092 -0.051149 -1.680330
v -1.700083 0.000000 -1.775153
v -1.504467 0.051149 -1.771663
v -1.504467 -0.051149 -1.771663
v -1.578897 0.000000 -1.871719
v -1.384899 0.051149 -1.854586
v -1.384899 -0.051149 -1.854586
v -1.452625 0.000000 -1.959296
v -1.260998 0.051149 -1.929173
v -1.260998 -0.051149 -1.929173
v -1.321938 0.000000 -2.037973
v -1.133375 0.051149 -1.995496
v -1.133375 -0.051149 -1.995496
v -1.187484 0.000000 -2.107849
v -1.002610 0.051149 -2.053636
v -1.002610 -0.051149 -2.053636
v -1.049868 0.000000 -2.169038
v -0.869164 0.051149 -2.103711
v -0.869164 -0.051149 -2.103711
v -0.909577 0.000000 -2.221684
v -0.733467 0.051149 -2.145849
v -0.733467 -0.051149 -2.145849
v -0.767072 0.000000 -2.265939
v -0.595951 0.051149 -2.180176
v -0.595951 -0.051149 -2.180176
v -0.622802 0.000000 -2.301955
v -0.457030 0.051149 -2.206809
v -0.457030 -0.051149 -2.206809
v -0.477167 0.000000 -2.329876
v -0.317053 0.051149 -2.225816
v -0.317053 -0.051149 -2.225816
v -0.330501 0.000000 -2.349792
v -0.176352 0.051149 -2.237256
v -0.176352 -0.051149 -2.237256
v -0.183145 0.000000 -2.361775
v -0.035260 0.051149 -2.241187
v -0.035260 -0.051149 -2.241187
v -0.035435 0.000000 -2.365891
v 0.105893 0.051149 -2.237651
v 0.105893 -0.051149 -2.237651
v 0.112322 0.000000 -2.362189
v 0.246777 0.051149 -2.226625
v 0.246777 -0.051149 -2.226625
v 0.259823 0.000000 -2.350644
v 0.387064 0.051149 -2.208069
v 0.387064 -0.051149 -2.208069
v 0.406736 0.000000 -2.331211
v 0.526425 0.051149 -2.181943
v 0.526425 -0.051149 -2.181943
v 0.552725 0.000000 -2.303842
v 0.664518 0.051149 -2.148196
v 0.664518 -0.051149 -2.148196
v 0.697465 0.000000 -2.268469
v 0.800944 0.051149 -2.106731
v 0.800944 -0.051149 -2.106731
v 0.840570 0.000000 -2.224972
v 0.935289 0.051149 -2.057438
v 0.935289 -0.051149 -2.057438
v 0.981613 0.000000 -2.173219
v 1.067140 0.051149 -2.000208
v 1.067140 -0.051149 -2.000208
v 1.120154 0.000000 -2.113082
v 1.196056 0.051149 -1.934937
v 1.196056 -0.051149 -1.934937
v 1.255736 0.000000 -2.044433
v 1.321493 0.051149 -1.861547
v 1.321493 -0.051149 -1.861547
v 1.387794 0.000000 -1.967165
v 1.442879 0.051149 -1.779962
v 1.442879 -0.051149 -1.779962
v 1.515723 0.000000 -1.881179
v 1.559643 0.051149 -1.690111
v 1.559643 -0.051149 -1.690111
v 1.638901 0.000000 -1.786388
v 1.671195 0.051149 -1.591953
v 1.671195 -0.051149 -1.591953
v 1.756664 0.000000 -1.682761
v 1.776872 0.051149 -1.485590
v 1.776872 -0.051149 -1.485590
v 1.868287 0.000000 -1.570409
v 1.875992 0.051149 -1.371157
v 1.875992 -0.051149 -1.371157
v 1.973042 0.000000 -1.449467
v 1.967873 0.051149 -1.248790
v 1.967873 -0.051149 -1.248790
v 2.070198 0.000000 -1.320068
v 2.051855 0.051149 -1.118575
v 2.051855 -0.051149 -1.118575
v 2.159040 0.000000 -1.182313
v 2.127359 0.051149 -0.980411
v 2.127359 -0.051149 -0.980411
v 2.238915 0.000000 -1.036145
v 2.193827 0.051149 -0.834144
v 2.193827 -0.051149 -0.834144
v 2.309185 0.000000 -0.881509
v 2.250701 0.051149 -0.679623
v 2.250701 -0.051149 -0.679623
v 2.369162 0.000000 -0.718585
v 2.297940 0.051149 -0.517072
v 2.297940 -0.051149 -0.517072
v 2.418559 0.000000 -0.548729
v 2.337566 0.051149 -0.348217
v 2.337566 -0.051149 -0.348217
v 2.459432 0.000000 -0.374674
v 2.372117 0.051149 -0.175159
v 2.372117 -0.051149 -0.175159
v 2.494602 0.000000 -0.198578
v 2.404130 0.051149 -0.000000
v 2.404130 -0.051149 -0.000000
v 2.526802 0.000000 -0.022420
vn -0.3754 0.9252 -0.0559
vn -0.3754 -0.9252 -0.0559
vn -0.3744 0.9252 -0.0622
vn -0.3744 -0.9252 -0.0622
vn -0.3721 0.9252 -0.0750
vn -0.3721 -0.9252 -0.0750
vn -0.3676 0.9251 -0.0947
vn -0.3676 -0.9251 -0.0947
vn -0.3602 0.9251 -0.1202
vn -0.3602 -0.9251 -0.1202
vn -0.3503 0.9251 -0.1464
vn -0.3503 -0.9251 -0.1464
vn -0.3386 0.9251 -0.1719
vn -0.3386 -0.9251 -0.1719
vn -0.3250 0.9251 -0.1964
vn -0.3250 -0.9251 -0.1964
vn -0.3097 0.9251 -0.2197
vn -0.3097 -0.9251 -0.2197
vn -0.2930 0.9251 -0.2415
vn -0.2930 -0.9251 -0.2415
vn -0.2751 0.9251 -0.2617
vn -0.2751 -0.9251 -0.2617
vn -0.2563 0.9251 -0.2801
vn -0.2563 -0.9251 -0.2801
vn -0.2366 0.9251 -0.2969
vn -0.2366 -0.9251 -0.2969
vn -0.2164 0.9251 -0.3120
vn -0.2164 -0.9251 -0.3120
vn -0.1958 0.9251 -0.3253
vn -0.1958 -0.9251 -0.3253
vn -0.1751 0.9251 -0.3369
vn -0.1751 -0.9251 -0.3369
vn -0.1542 0.9251 -0.3469
vn -0.1542 -0.9251 -0.3469
vn -0.1334 0.9251 -0.3554
vn -0.1334 -0.9251 -0.3554
vn -0.1126 0.9251 -0.3625
vn -0.1126 -0.9251 -0.3625
vn -0.0919 0.9251 -0.3683
vn -0.0919 -0.9251 -0.3683
vn -0.0715 0.9251 -0.3728
vn -0.0715 -0.9251 -0.3728
vn -0.0511 0.9251 -0.3762
vn -0.0511 -0.9251 -0.3762
vn -0.0308 0.9252 -0.3784
vn -0.0308 -0.9251 -0.3784
vn -0.0106 0.9252 -0.3795
vn -0.0106 -0.9252 -0.3795
vn 0.0095 0.9252 -0.3795
vn 0.0095 -0.9252 -0.3795
vn 0.0296 0.9252 -0.3784
vn 0.0296 -0.9252 -0.3784
vn 0.0498 0.9251 -0.3763
vn 0.0498 -0.9251 -0.3763
vn 0.0699 0.9251 -0.3731
vn 0.0699 -0.9251 -0.3731
vn 0.0901 0.9251 -0.3688
vn 0.0901 -0.9251 -0.3688
vn 0.1104 0.9251 -0.3632
vn 0.1104 -0.9251 -0.3632
vn 0.1308 0.9251 -0.3564
vn 0.1308 -0.9251 -0.3564
vn 0.1512 0.9251 -0.3482
vn 0.1512 -0.9251 -0.3482
vn 0.1715 0.9251 -0.3387
vn 0.1715 -0.9251 -0.3387
vn 0.1917 0.9251 -0.3277
vn 0.1917 -0.9251 -0.3277
vn 0.2118 0.9251 -0.3151
vn 0.2118 -0.9251 -0.3151
vn 0.2315 0.9251 -0.3009
vn 0.2315 -0.9251 -0.3009
vn 0.2508 0.9251 -0.2850
vn 0.2508 -0.9251 -0.2850
vn 0.2693 0.9251 -0.2676
vn 0.2693 -0.9251 -0.2676
vn 0.2870 0.9251 -0.2486
vn 0.2870 -0.9251 -0.2486
vn 0.3036 0.9251 -0.2280
vn 0.3036 -0.9251 -0.2280
vn 0.3191 0.9251 -0.2058
vn 0.3191 -0.9251 -0.2058
vn 0.3332 0.9251 -0.1821
vn 0.3332 -0.9251 -0.1821
vn 0.3457 0.9251 -0.1571
vn 0.3457 -0.9251 -0.1571
vn 0.3563 0.9251 -0.1312
vn 0.3563 -0.9251 -0.1312
vn 0.3645 0.9251 -0.1060
vn 0.3645 -0.9251 -0.1060
vn 0.3695 0.9252 -0.0867
vn 0.3695 -0.9252 -0.0867
vn 0.3722 0.9252 -0.0743
vn 0.3722 -0.9252 -0.0743
vn 0.3733 0.9252 -0.0682
vn 0.3733 -0.9252 -0.0682
vt 0.542864 0.989936
vt 0.552146 0.989936
vt 0.552146 0.503906
vt 0.542864 0.503906
vt 0.552146 0.017876
vt 0.542864 0.017876
vt 0.561428 0.989936
vt 0.561428 0.503906
vt 0.561428 0.017876
vt 0.570709 0.989936
vt 0.570709 0.503906
vt 0.570709 0.017876
vt 0.579991 0.989936
vt 0.579991 0.503906
vt 0.579991 0.017876
vt 0.589273 0.989936
vt 0.589273 0.503906
vt 0.589273 0.017876
vt 0.598555 0.989936
vt 0.598555 0.503906
vt 0.598555 0.017876
vt 0.607836 0.989936
vt 0.607836 0.503906
vt 0.607836 0.017876
vt 0.617118 0.989936
vt 0.617118 0.503906
vt 0.617118 0.017876
vt 0.626400 0.989936
vt 0.626400 0.503906
vt 0.626400 0.017876
vt 0.635681 0.989936
vt 0.635681 0.503906
vt 0.635681 0.017876
vt 0.644963 0.989936
vt 0.644963 0.503906
vt 0.644963 0.017876
vt 0.654245 0.989936
vt 0.654245 0.503906
vt 0.654245 0.017876
vt 0.663526 0.989936
vt 0.663526 0.503906
vt 0.663526 0.017876
vt 0.672808 0.989936
vt 0.672808 0.503906
vt 0.672808 0.017876
vt 0.682090 0.989936
vt 0.682090 0.503906
vt 0.682090 0.017876
vt 0.691371 0.989936
vt 0.691371 0.503906
vt 0.691371 0.017876
vt 0.700653 0.989936
vt 0.700653 0.503906
vt 0.700653 0.017876
vt 0.709935 0.989936
vt 0.709935 0.503906
vt 0.709935 0.017876
vt 0.719216 0.989936
vt 0.719216 0.503906
vt 0.719216 0.017876
vt 0.728498 0.989936
vt 0.728498 0.503906
vt 0.728498 0.017876
vt 0.737780 0.989936
vt 0.737780 0.503906
vt 0.737780 0.017876
vt 0.747061 0.989936
vt 0.747061 0.503906
vt 0.747061 0.017876
vt 0.756343 0.989936
vt 0.756343 0.503906
vt 0.756343 0.017876
vt 0.765625 0.989936
vt 0.765625 0.503906
vt 0.765625 0.017876
vt 0.774907 0.989936
vt 0.774907 0.503906
vt 0.774907 0.017876
vt 0.784188 0.989936
vt 0.784188 0.503906
vt 0.784188 0.017876
vt 0.793470 0.989936
vt 0.793470 0.503906
vt 0.793470 0.017876
vt 0.802752 0.989936
vt 0.802752 0.503906
vt 0.802752 0.017876
vt 0.812033 0.989936
vt 0.812033 0.503906
vt 0.812033 0.017876
vt 0.821315 0.989936
vt 0.821315 0.503906
vt 0.821315 0.017876
vt 0.830597 0.989936
vt 0.830597 0.503906
vt 0.830597 0.017876
vt 0.839878 0.989936
vt 0.839878 0.503906
vt 0.839878 0.017876
vt 0.849160 0.989936
vt 0.849160 0.503906
vt 0.849160 0.017876
vt 0.858442 0.989936
vt 0.858442 0.503906
vt 0.858442 0.017876
vt 0.867724 0.989936
vt 0.867724 0.503906
vt 0.867724 0.017876
vt 0.877005 0.989936
vt 0.877005 0.503906
vt 0.877005 0.017876
vt 0.886287 0.989936
vt 0.886287 0.503906
vt 0.886287 0.017876
vt 0.895569 0.989936
vt 0.895569 0.503906
vt 0.895569 0.017876
vt 0.904850 0.989936
vt 0.904850 0.503906
vt 0.904850 0.017876
vt 0.914132 0.989936
vt 0.914132 0.503906
vt 0.914132 0.017876
vt 0.923414 0.989936
vt 0.923414 0.503906
vt 0.923414 0.017876
vt 0.932695 0.989936
vt 0.932695 0.503906
vt 0.932695 0.017876
vt 0.941977 0.989936
vt 0.941977 0.503906
vt 0.941977 0.017876
vt 0.951259 0.989936
vt 0.951259 0.503906
vt 0.951259 0.017876
vt 0.960540 0.989936
vt 0.960540 0.503906
vt 0.960540 0.017876
vt 0.969822 0.989936
vt 0.969822 0.503906
vt 0.969822 0.017876
vt 0.979104 0.989936
vt 0.979104 0.503906
vt 0.979104 0.017876
vt 0.988385 0.989936
vt 0.988385 0.503906
vt 0.988385 0.017876
s 0
f 1/1/1 4/2/1 6/3/1 3/4/1
f 3/4/2 6/3/2 5/5/2 2/6/2
f 4/2/3 7/7/3 9/8/3 6/3/3
f 6/3/4 9/8/4 8/9/4 5/5/4
f 7/7/5 10/10/5 12/11/5 9/8/5
f 9/8/6 12/11/6 11/12/6 8/9/6
f 10/10/7 13/13/7 15/14/7 12/11/7
f 12/11/8 15/14/8 14/15/8 11/12/8
f 13/13/9 16/16/9 18/17/9 15/14/9
f 15/14/10 18/17/10 17/18/10 14/15/10
f 16/16/11 19/19/11 21/20/11 18/17/11
f 18/17/12 21/20/12 20/21/12 17/18/12
f 19/19/13 22/22/13 24/23/13 21/20/13
f 21/20/14 24/23/14 23/24/14 20/21/14
f 22/22/15 25/25/15 27/26/15 24/23/15
f 24/23/16 27/26/16 26/27/16 23/24/16
f 25/25/17 28/28/17 30/29/17 27/26/17
f 27/26/18 30/29/18 29/30/18 26/27/18
f 28/28/19 31/31/19 33/32/19 30/29/19
f 30/29/20 33/32/20 32/33/20 29/30/20
f 31/31/21 34/34/21 36/35/21 33/32/21
f 33/32/22 36/35/22 35/36/22 32/33/22
f 34/34/23 37/37/23 39/38/23 36/35/23
f 36/35/24 39/38/24 38/39/24 35/36/24
f 37/37/25 40/40/25 42/41/25 39/38/25
f 39/38/26 42/41/26 41/42/26 38/39/26
f 40/40/27 43/43/27 45/44/27 42/41/27
f 42/41/28 45/44/28 44/45/28 41/42/28
f 43/43/29 46/46/29 48/47/29 45/44/29
f 45/44/30 48/47/30 47/48/30 44/45/30
f 46/46/31 49/49/31 51/50/31 48/47/31
f 48/47/32 51/50/32 50/51/32 47/48/32
f 49/49/33 52/52/33 54/53/33 51/50/33
f 51/50/34 54/53/34 53/54/34 50/51/34
f 52/52/35 55/55/35 57/56/35 54/53/35
f 54/53/36 57/56/36 56/57/36 53/54/36
f 55/55/37 58/58/37 60/59/37 57/56/37
f 57/56/38 60/59/38 59/60/38 56/57/38
f 58/58/39 61/61/39 63/62/39 60/59/39
f 60/59/40 63/62/40 62/63/40 59/60/40
f 61/61/41 64/64/41 66/65/41 63/62/41
f 63/62/42 66/65/42 65/66/42 62/63/42
f 64/64/43 67/67/43 69/68/43 66/65/43
f 66/65/44 69/68/44 68/69/44 65/66/44
f 67/67/45 70/70/45 72/71/45 69/68/45
f 69/68/46 72/71/46 71/72/46 68/69/46
f 70/70/47 73/73/47 75/74/47 72/71/47
f 72/71/48 75/74/48 74/75/48 71/72/48
f 73/73/49 76/76/49 78/77/49 75/74/49
f 75/74/50 78/77/50 77/78/50 74/75/50
f 76/76/51 79/79/51 81/80/51 78/77/51
f 78/77/52 81/80/52 80/81/52 77/78/52
f 79/79/53 82/82/53 84/83/53 81/80/53
f 81/80/54 84/83/54 83/84/54 80/81/54
f 82/82/55 85/85/55 87/86/55 84/83/55
f 84/83/56 87/86/56 86/87/56 83/84/56
f 85/85/57 88/88/57 90/89/57 87/86/57
f 87/86/58 90/89/58 89/90/58 86/87/58
f 88/88/59 91/91/59 93/92/59 90/89/59
f 90/89/60 93/92/60 92/93/60 89/90/60
f 91/91/61 94/94/61 96/95/61 93/92/61
f 93/92/62 96/95/62 95/96/62 92/93/62
f 94/94/63 97/97/63 99/98/63 96/95/63
f 96/95/64 99/98/64 98/99/64 95/96/64
f 97/97/65 100/100/65 102/101/65 99/98/65
f 99/98/66 102/101/66 101/102/66 98/99/66
f 100/100/67 103/103/67 105/104/67 102/101/67
f 102/101/68 105/104/68 104/105/68 101/102/68
f 103/103/69 106/106/69 108/107/69 105/104/69
f 105/104/70 108/107/70 107/108/70 104/105/70
f 106/106/71 109/109/71 111/110/71 108/107/71
f 108/107/72 111/110/72 110/111/72 107/108/72
f 109/109/73 112/112/73 114/113/73 111/110/73
f 111/110/74 114/113/74 113/114/74 110/111/74
f 112/112/75 115/115/75 117/116/75 114/113/75
f 114/113/76 117/116/76 116/117/76 113/114/76
f 115/115/77 118/118/77 120/119/77 117/116/77
f 117/116/78 120/119/78 119/120/78 116/117/78
f 118/118/79 121/121/79 123/122/79 120/119/79
f 120/119/80 123/122/80 122/123/80 119/120/80
f 121/121/81 124/124/81 126/125/81 123/122/81
f 123/122/82 126/125/82 125/126/82 122/123/82
f 124/124/83 127/127/83 129/128/83 126/125/83
f 126/125/84 129/128/84 128/129/84 125/126/84
f 127/127/85 130/130/85 132/131/85 129/128/85
f 129/128/86 132/131/86 131/132/86 128/129/86
f 130/130/87 133/133/87 135/134/87 132/131/87
f 132/131/88 135/134/88 134/135/88 131/132/88
f 133/133/89 136/136/89 138/137/89 135/134/89
f 135/134/90 138/137/90 137/138/90 134/135/90
f 136/136/91 139/139/91 141/140/91 138/137/91
f 138/137/92 141/140/92 140/141/92 137/138/92
f 139/139/93 142/142/93 144/143/93 141/140/93
f 141/140/94 144/143/94 143/144/94 140/141/94
f 142/142/95 145/145/95 147/146/95 144/143/95
f 144/143/96 147/146/96 146/147/96 143/144/96
